<?xml version="1.0" encoding="UTF-8"?>
<svg version="1.1" xmlns="http://www.w3.org/2000/svg" width="1024" height="1024">
<path d="M0 0 C337.92 0 675.84 0 1024 0 C1024 337.92 1024 675.84 1024 1024 C686.08 1024 348.16 1024 0 1024 C0 686.08 0 348.16 0 0 Z " fill="#FEFEFE" transform="translate(0,0)"/>
<path d="M0 0 C1.09044617 -0.00626404 2.18089233 -0.01252808 3.30438232 -0.01898193 C23.48622959 -0.09226829 43.42919487 1.55855147 63.125 6.125 C64.23609131 6.37846191 65.34718262 6.63192383 66.49194336 6.89306641 C83.80348865 10.98731994 100.51588089 16.7884864 116.56640625 24.45507812 C118.58854113 25.42010075 120.62149391 26.35882468 122.65625 27.296875 C157.05787763 43.48513171 185.66725832 70.3577505 205.625 102.4375 C206.04410645 103.11039062 206.46321289 103.78328125 206.89501953 104.4765625 C227.52141012 138.10854976 240.70499181 184.62603217 233.125 224 C227.20013469 254.82039357 243.29350187 275.86272987 259.625 300.4375 C260.181875 301.27700195 260.73875 302.11650391 261.3125 302.98144531 C262.85223342 305.30142355 264.3941399 307.61993307 265.9375 309.9375 C266.66018066 311.02272949 266.66018066 311.02272949 267.39746094 312.12988281 C269.73761084 315.63611423 272.09487254 319.12875337 274.484375 322.6015625 C274.94030029 323.26994141 275.39622559 323.93832031 275.8659668 324.62695312 C276.70938117 325.86223654 277.55918186 327.09320001 278.41723633 328.31835938 C282.95634391 334.9915322 285.37638914 341.00940223 284.1875 349.12109375 C283.33585005 352.62823554 281.98874401 354.71010307 279.625 357.4375 C279.13644531 358.01242187 278.64789062 358.58734375 278.14453125 359.1796875 C272.76546375 364.71312117 266.62236174 366.27679889 259.42578125 368.328125 C253.85755835 369.95338225 249.20506308 371.31429023 245.625 376.125 C243.67442472 382.58628061 244.07366142 387.44988576 246.625 393.6875 C249.08782797 399.94132387 249.5074713 405.78294601 248.625 412.4375 C246.33408552 417.37177734 242.8519692 420.17120562 238.625 423.4375 C239.0890625 424.5821875 239.0890625 424.5821875 239.5625 425.75 C241.79568441 431.39864293 242.7928454 436.61737919 240.9765625 442.55859375 C238.85323744 447.21357561 235.93084121 450.4289206 232.11328125 453.796875 C228.90037138 457.3386654 229.49009698 461.67975627 229.5 466.25 C229.49613281 468.02310547 229.49613281 468.02310547 229.4921875 469.83203125 C229.62494091 473.43589583 230.11203708 476.87061829 230.625 480.4375 C231.32735942 495.39938905 229.92437646 506.25840859 221.4375 518.625 C208.14160491 531.92089509 188.41804723 532.66981166 170.68701172 532.76757812 C160.62091248 532.68157984 150.73457189 531.60362162 140.75 530.4375 C114.18553106 526.27922769 114.18553106 526.27922769 89.4375 534 C75.98782826 545.09055593 72.89820603 563.39933951 68.625 579.4375 C63.18747297 574.9006954 58.13788651 570.09311998 53.13867188 565.08056641 C51.91042442 563.85494743 51.91042442 563.85494743 50.65736389 562.60456848 C47.96698167 559.91856643 45.28024936 557.22894771 42.59375 554.5390625 C40.71494895 552.66093565 38.83600064 550.78295704 36.95690918 548.90512085 C33.02464958 544.97467541 29.09449107 541.04213831 25.16552734 537.10839844 C20.64071503 532.57814875 16.11231697 528.05150734 11.58203268 523.52673018 C7.67507855 519.62433323 3.77010053 515.7199669 -0.13327169 511.81398714 C-2.45688373 509.48882612 -4.78134096 507.16452304 -7.10719299 504.84160233 C-9.70345423 502.24789547 -12.2964631 499.65097882 -14.88867188 497.05322266 C-15.6473204 496.29659836 -16.40596893 495.53997406 -17.18760681 494.76042175 C-21.20945054 490.72271019 -25.04730576 486.58967047 -28.76893425 482.27416611 C-31.07723846 479.63443351 -33.5054349 477.14885896 -35.96801758 474.65161133 C-36.47966965 474.13178177 -36.99132172 473.61195221 -37.51847839 473.07637024 C-39.1825654 471.38783203 -40.85045478 469.70313702 -42.51953125 468.01953125 C-43.38481729 467.1462597 -43.38481729 467.1462597 -44.26758385 466.2553463 C-47.31688398 463.17950063 -50.3697271 460.1072171 -53.42504883 457.03735352 C-55.93506043 454.51397822 -58.4375895 451.98352337 -60.93383789 449.4465332 C-63.97167155 446.3591561 -67.02180868 443.28444873 -70.08096886 440.21820641 C-71.23534028 439.05716824 -72.38549139 437.89191649 -73.53107643 436.72220802 C-82.57129976 427.50243514 -90.95094102 420.42803816 -104.39381409 420.24961853 C-105.19294724 420.24386307 -105.99208038 420.2381076 -106.81542969 420.23217773 C-107.66457443 420.22227814 -108.51371918 420.21237854 -109.38859558 420.20217896 C-112.19132716 420.17062753 -114.99407568 420.14583165 -117.796875 420.12109375 C-119.74172401 420.10051874 -121.6865686 420.07952212 -123.63140869 420.05812073 C-128.74742045 420.00295662 -133.86347219 419.95352237 -138.97955322 419.90527344 C-144.20124871 419.85501709 -149.42288622 419.7993526 -154.64453125 419.74414062 C-164.88797129 419.63662829 -175.1314617 419.53516793 -185.375 419.4375 C-186.01179553 418.01217015 -186.64778806 416.58648152 -187.28344727 415.16064453 C-187.81483055 413.96980759 -187.81483055 413.96980759 -188.35694885 412.75491333 C-189.21362521 410.80484116 -190.03136137 408.83772856 -190.83984375 406.8671875 C-197.56405114 390.63634207 -206.61705569 375.44113679 -216.08203125 360.66796875 C-217.375 358.4375 -217.375 358.4375 -217.375 356.4375 C-167.60527577 355.54605489 -117.83204777 355.27799081 -68.05529106 355.20158577 C-62.36469191 355.19212784 -56.67414996 355.17473644 -50.98358154 355.15405273 C-43.9527915 355.12869428 -36.92208013 355.114358 -29.89124274 355.11376166 C-26.24270176 355.11321236 -22.59433161 355.10786471 -18.9458313 355.0898819 C-14.9369241 355.0703948 -10.92838296 355.07460865 -6.91943359 355.08105469 C-5.74389105 355.07183739 -4.5683485 355.06262009 -3.35718346 355.05312347 C3.44820324 355.08799915 8.88598851 355.40386305 14.35913086 359.84448242 C14.76526611 360.32248291 15.17140137 360.8004834 15.58984375 361.29296875 C16.07203369 361.82954102 16.55422363 362.36611328 17.05102539 362.91894531 C17.79920532 363.76344238 17.79920532 363.76344238 18.5625 364.625 C26.35059889 372.93880427 37.24046357 379.91346647 48.875 380.640625 C64.45393686 380.83536171 77.96718666 377.55943652 89.5859375 366.6796875 C98.77965758 356.57011792 102.09231458 344.71354567 101.96484375 331.30078125 C100.93707333 319.61727614 96.0834447 308.55919153 87.52734375 300.44921875 C75.10288704 290.21602425 62.33988133 287.43275234 46.625 288.4375 C34.05798924 290.57372494 22.29434666 298.42938229 14.625 308.4375 C8.62411778 316.25647129 0.35044457 323.21703591 -9.70149338 324.80503893 C-12.180313 324.93699055 -14.63094792 324.9521099 -17.11305237 324.91851807 C-18.05179213 324.92193577 -18.99053189 324.92535347 -19.95771831 324.92887473 C-23.08093528 324.93542604 -26.20327918 324.91352288 -29.32641602 324.89160156 C-31.57402018 324.89047249 -33.82162582 324.89110811 -36.06922913 324.89337158 C-42.15540891 324.89451732 -48.24127216 324.87103033 -54.32737851 324.84307575 C-60.69349127 324.81803893 -67.0596116 324.81571829 -73.42576599 324.81097412 C-84.1059276 324.79996177 -94.78596447 324.77499179 -105.46606445 324.73925781 C-116.46312891 324.70250175 -127.46016185 324.67420764 -138.45727539 324.65722656 C-139.47528111 324.65565022 -139.47528111 324.65565022 -140.5138526 324.65404204 C-143.91878494 324.64882162 -147.3237175 324.64376685 -150.72865021 324.63879442 C-178.94418065 324.59737555 -207.15958311 324.5266662 -235.375 324.4375 C-237.14187572 320.31078213 -238.9016077 316.18105372 -240.66015625 312.05078125 C-241.1560022 310.89292114 -241.65184814 309.73506104 -242.16271973 308.54211426 C-250.46346734 289.01519989 -257.52409839 267.15475837 -257.3996582 245.69067383 C-257.39609818 244.89099686 -257.39253815 244.09131989 -257.38887024 243.26741028 C-257.38200447 242.36160469 -257.38200447 242.36160469 -257.375 241.4375 C-226.76978564 240.39414866 -196.16481328 240.21910328 -165.54465342 240.19867182 C-158.51247822 240.19389707 -151.48049026 240.17608485 -144.44837165 240.1476047 C-138.26798122 240.12345749 -132.08766948 240.11566705 -125.90723419 240.11392975 C-123.30282792 240.11090583 -120.69842242 240.10288614 -118.09404755 240.08974457 C-114.49451194 240.07280358 -110.89545703 240.07452932 -107.29589844 240.08105469 C-106.22716492 240.0718399 -105.1584314 240.06262512 -104.05731201 240.0531311 C-103.08302246 240.05870026 -102.10873291 240.06426941 -101.10491943 240.07000732 C-100.25866879 240.06854076 -99.41241814 240.0670742 -98.54052353 240.0655632 C-95.85116095 240.52747132 -95.01254254 241.28856237 -93.375 243.4375 C-92.54783505 245.72353464 -91.80875307 248.0420538 -91.125 250.375 C-86.97909463 263.56520993 -80.80351539 273.66459981 -68.375 280.25 C-54.63444713 286.56940707 -40.28351309 285.68594251 -26.20703125 280.6640625 C-14.79637259 275.69894556 -6.49363275 265.32769923 -2 254 C2.08705204 240.55394225 0.32926202 227.02947715 -5.77734375 214.578125 C-11.77097389 203.96837385 -21.72933374 196.82826591 -33.375 193.4375 C-44.79949266 190.58137683 -58.85953166 191.47988635 -69.3125 196.984375 C-74.1680935 199.96634275 -78.62074286 203.23775169 -82.7421875 207.17578125 C-86.9464189 210.42450552 -91.10056505 210.68583626 -96.27827454 210.67800903 C-96.96041635 210.67971788 -97.64255817 210.68142673 -98.34537095 210.68318737 C-100.62399129 210.68647346 -102.90231513 210.6754933 -105.1809082 210.66455078 C-106.81709282 210.66398648 -108.45327795 210.6643036 -110.08946228 210.66543579 C-114.52708562 210.66600955 -118.96460082 210.65425143 -123.40219903 210.64028788 C-128.04133573 210.62778445 -132.68047491 210.62661032 -137.31962585 210.62423706 C-146.10264314 210.61802116 -154.88561063 210.60160883 -163.66860598 210.58153808 C-173.66852469 210.55918253 -183.66844577 210.54818651 -193.66838324 210.53814721 C-214.23728328 210.51724272 -234.80613851 210.48206457 -255.375 210.4375 C-255.38442541 208.83437208 -255.39115568 207.23122816 -255.39674377 205.62808228 C-255.40077996 204.73533411 -255.40481615 203.84258595 -255.40897465 202.92278481 C-255.37105446 200.14887954 -255.06028089 197.55763993 -254.52734375 194.8359375 C-254.337771 193.86269531 -254.14819824 192.88945312 -253.95288086 191.88671875 C-253.63589233 190.36498047 -253.63589233 190.36498047 -253.3125 188.8125 C-253.09279541 187.73871094 -252.87309082 186.66492188 -252.64672852 185.55859375 C-250.99559711 177.76502615 -249.0263785 170.08936355 -246.8125 162.4375 C-246.39182251 160.98029541 -246.39182251 160.98029541 -245.96264648 159.49365234 C-244.64734048 155.10777267 -243.18393577 150.94132692 -241.31141663 146.76074219 C-240.7683114 145.54605255 -240.7683114 145.54605255 -240.21423435 144.30682373 C-239.93728702 143.6899469 -239.66033968 143.07307007 -239.375 142.4375 C-196.29611505 142.09514083 -153.21708497 141.78857797 -110.1376524 141.52374935 C-102.78386822 141.4784146 -95.43009839 141.43187481 -88.07635498 141.38031006 C-75.08067986 141.28923012 -62.08514899 141.20509192 -49.08921623 141.1610775 C-43.95941761 141.14357759 -38.82986468 141.11963334 -33.70019531 141.07861328 C-28.97326138 141.04109184 -24.24664187 141.02214709 -19.51956367 141.01854897 C-17.82479178 141.01407263 -16.13002124 141.00285173 -14.4353466 140.98415184 C-12.15627889 140.96002204 -9.87851904 140.96057546 -7.59936523 140.9675293 C-6.33857651 140.96166306 -5.07778778 140.95579681 -3.77879333 140.94975281 C2.10696537 141.79315368 5.92518089 145.61337665 10.3125 149.375 C22.34781343 159.13434645 34.67399713 160.56173 49.625 159.4375 C62.13174557 157.16354626 72.19703521 149.56203107 79.625 139.4375 C86.57732725 128.04488231 88.44650108 116.13399378 85.97265625 102.96484375 C82.52566741 90.55272513 75.96205749 80.23964512 64.6953125 73.75 C52.94332134 67.65420409 41.03489173 65.24796892 28.015625 68.27734375 C14.919906 72.92977024 4.00490752 81.68641763 -2.75 93.9296875 C-4.22962613 97.16092986 -5.32459916 100.23589665 -6.1875 103.6875 C-7.90377069 107.6620216 -10.56463818 109.47908399 -14.375 111.4375 C-17.31994035 112.10267649 -20.14152236 112.09406142 -23.15122986 112.03877258 C-24.44039498 112.04518077 -24.44039498 112.04518077 -25.75560385 112.05171841 C-28.62268183 112.05992522 -31.48828243 112.03250202 -34.35522461 112.00512695 C-36.41534389 112.00371598 -38.47546568 112.00450942 -40.5355835 112.00733948 C-46.11992252 112.00877311 -51.70372375 111.97939132 -57.28793788 111.94446969 C-63.12687241 111.91319772 -68.96581948 111.91027477 -74.80482483 111.90434265 C-85.85803391 111.88880674 -96.91099551 111.84778145 -107.96409565 111.7975952 C-120.54923146 111.74169409 -133.13437912 111.71421326 -145.71960819 111.68911803 C-171.60487596 111.63686558 -197.48992411 111.54892796 -223.375 111.4375 C-218.39652277 98.68192066 -208.40478684 87.67325381 -198.90039062 77.99804688 C-197.355955 76.41801606 -195.84137025 74.81300149 -194.328125 73.203125 C-186.10547294 64.57804668 -177.04501793 57.37622194 -167.375 50.4375 C-166.75931152 49.9930957 -166.14362305 49.54869141 -165.50927734 49.09082031 C-133.27585761 26.06821308 -95.08432563 11.84579207 -56.375 4.4375 C-55.31265137 4.22722168 -54.25030273 4.01694336 -53.15576172 3.80029297 C-35.47975761 0.44973118 -17.93996613 0.04821971 0 0 Z " fill="#1A9CD8" transform="translate(504.375,186.5625)"/>
<path d="M0 0 C9.67509653 -0.09277792 19.35003937 -0.16380435 29.02548409 -0.20724869 C33.51845159 -0.22810237 38.0111142 -0.25637917 42.50390625 -0.30175781 C46.84166323 -0.34529518 51.17912738 -0.3691538 55.51708603 -0.37950897 C57.17007938 -0.38688623 58.82305713 -0.40129247 60.47592545 -0.42292023 C62.79566021 -0.4520602 65.11419299 -0.45595174 67.43408203 -0.45410156 C68.75312531 -0.46298401 70.07216858 -0.47186646 71.43118286 -0.48101807 C78.43100542 0.46244331 82.77459579 5.48515247 87.53686523 10.29394531 C88.47228653 11.22651909 88.47228653 11.22651909 89.42660522 12.17793274 C91.47551174 14.2231517 93.51715498 16.2754542 95.55859375 18.328125 C96.99019953 19.76092432 98.42217675 21.1933526 99.85450745 22.62542725 C102.85248537 25.62496681 105.84708279 28.62782691 108.83911133 31.63330078 C112.65798643 35.46912655 116.48337162 39.2983762 120.3111105 43.12535477 C123.26866047 46.08317791 126.2235872 49.04361012 129.17765999 52.0049057 C130.58635534 53.41676463 131.99564075 54.82803509 133.40554619 56.23868561 C135.38412874 58.21945865 137.35937157 60.2035043 139.33374023 62.18847656 C139.90694504 62.76122818 140.48014984 63.3339798 141.07072449 63.92408752 C143.98421607 66.86025959 146.77731102 69.85800024 149.48377991 72.98675537 C152.8125007 76.83011487 156.31614163 80.44489508 159.92578125 84.0234375 C160.57880219 84.67499817 161.23182312 85.32655884 161.90463257 85.99786377 C163.3084591 87.39791486 164.71343853 88.79681075 166.11947632 90.19464111 C168.35070887 92.41298821 170.57869592 94.63455062 172.8059082 96.85693359 C177.53445954 101.57411528 182.26693201 106.28735076 187 111 C192.48920057 116.46551981 197.97673766 121.93268852 203.46005249 127.40411377 C205.64424355 129.58187097 207.83144794 131.75656961 210.01879883 133.93115234 C211.37075495 135.27947252 212.72256896 136.62793523 214.07421875 137.9765625 C214.67390472 138.57108215 215.2735907 139.16560181 215.89144897 139.77813721 C219.55317619 143.43941287 222.99168939 147.22843043 226.33190918 151.1860199 C228.06091933 153.06624726 229.88400918 154.61229018 231.89453125 156.18359375 C238.0937609 161.19921439 243.02354603 165.65230218 244.2734375 173.828125 C244.74692351 179.16896414 244.79353935 184.5127534 244.86035156 189.87158203 C245.0774757 194.73561817 246.01238682 199.38092245 247.0625 204.125 C247.2380542 204.92317139 247.4136084 205.72134277 247.59448242 206.54370117 C247.91921993 208.01297691 248.24582543 209.48184163 248.57470703 210.95019531 C249.19750018 213.951901 249.6089203 216.9600609 250 220 C249.20722656 219.56171875 248.41445313 219.1234375 247.59765625 218.671875 C189.36862328 186.85052783 125.85572285 168.63621662 60 162 C58.91350159 161.8891507 58.91350159 161.8891507 57.80505371 161.77606201 C24.94905902 158.45759742 -8.00810759 158.28655877 -41 158 C-39.8206245 154.20585857 -38.50842023 150.84216644 -36.49609375 147.41796875 C-35.76277832 146.15702393 -35.76277832 146.15702393 -35.01464844 144.87060547 C-34.49418945 143.98518066 -33.97373047 143.09975586 -33.4375 142.1875 C-32.34585267 140.29921861 -31.25602884 138.40988194 -30.16796875 136.51953125 C-29.36045166 135.11695068 -29.36045166 135.11695068 -28.53662109 133.68603516 C-21.38183294 121.17936543 -15.17611091 108.45417979 -10 95 C-9.68256836 94.17516113 -9.36513672 93.35032227 -9.03808594 92.50048828 C-0.08823747 68.73978802 1.56308688 45.78280854 1.23828125 20.640625 C1.22690628 19.60097847 1.22690628 19.60097847 1.21530151 18.54032898 C1.10055496 12.33674624 0.55985427 6.17736063 0 0 Z " fill="#0866BB" transform="translate(328,637)"/>
<path d="M0 0 C5.07629921 2.97149222 9.2817619 7.89670089 11.40234375 13.40625 C12.23428969 21.26136745 12.45139077 28.96597949 7.40234375 35.40625 C2.06422923 40.74436452 -3.36152948 43.51287086 -10.91015625 43.90625 C-17.80892383 43.68829443 -23.29252794 41.28711753 -28.484375 36.76171875 C-33.60535545 31.26875424 -35.12870596 25.07504317 -34.90234375 17.66796875 C-33.96479075 10.70844074 -29.98814214 6.18692526 -24.671875 1.8828125 C-16.60809622 -3.8575046 -8.88167254 -3.8318464 0 0 Z " fill="#23B7E9" transform="translate(555.59765625,279.59375)"/>
<path d="M0 0 C5.35688375 3.61976185 9.01634761 8.13251932 10.30078125 14.5546875 C11.10766006 22.41808825 9.50658788 28.27748908 5.11328125 34.8046875 C0.04645956 39.75891315 -6.26277617 42.65469942 -13.38671875 42.8671875 C-19.5319989 42.77773655 -23.84229329 41.11361166 -28.421875 37.01171875 C-33.46638667 31.59537575 -35.78657052 25.9303905 -36.13671875 18.5546875 C-35.88543436 11.72812814 -33.42441402 6.87583618 -28.44921875 2.2421875 C-19.48500241 -4.75753037 -9.92555911 -5.46446023 0 0 Z " fill="#199CD8" transform="translate(470.69921875,405.4453125)"/>
<path d="M0 0 C5.78609455 3.34807025 10.39847971 8.82434537 12.51171875 15.1640625 C13.20065805 22.35855722 13.46991682 28.57322707 8.98828125 34.51953125 C3.30599543 40.84821466 -3.05187775 44.10064481 -11.55078125 44.6015625 C-19.93091218 43.67043684 -24.96640261 39.44062942 -30.23828125 33.0390625 C-33.58272367 28.02239887 -32.98862452 21.94008408 -32.48828125 16.1640625 C-30.689387 9.05356835 -25.21538069 4.39346743 -19.48828125 0.1640625 C-13.49576654 -1.8334424 -6.0125935 -2.01992937 0 0 Z " fill="#1592D3" transform="translate(569.48828125,499.8359375)"/>
<path d="M0 0 C38.61 0 77.22 0 117 0 C117 0.33 117 0.66 117 1 C61.065 1.495 61.065 1.495 4 2 C5.98 5.96 7.96 9.92 10 14 C10 14.66 10 15.32 10 16 C10.66 16 11.32 16 12 16 C12.45375 17.11375 12.9075 18.2275 13.375 19.375 C14.72465986 22.96199008 14.72465986 22.96199008 17 25 C18.01765927 26.99107248 19.01577854 28.99218823 20 31 C20.556875 31.9075 21.11375 32.815 21.6875 33.75 C23 36 23 36 23 38 C23.66 38.33 24.32 38.66 25 39 C25.68124706 40.99508067 26.34427209 42.99638693 27 45 C27.92234452 46.91990167 28.89817031 48.80143597 29.90234375 50.6796875 C30.91098795 52.81183929 31.74811021 54.93529938 32.56860352 57.14501953 C32.83713638 57.86658234 33.10566925 58.58814514 33.38233948 59.33157349 C33.58616745 59.88215424 33.78999542 60.43273499 34 61 C34.89486115 60.99666908 34.89486115 60.99666908 35.80780029 60.99327087 C86.62672669 60.81309391 86.62672669 60.81309391 106.61633301 61.20852661 C108.10768078 61.23591057 109.59916431 61.25677246 111.09069824 61.27072144 C120.10649225 61.36330372 126.94573764 61.78657471 134.13671875 67.78125 C134.64847656 68.3484375 135.16023437 68.915625 135.6875 69.5 C137.62123314 71.56527961 139.38737377 73.3043651 141.625 75.0625 C143.66016703 76.72276784 145.06552948 78.22135465 146.6875 80.25 C147.450625 81.1575 148.21375 82.065 149 83 C149.66 83 150.32 83 151 83 C151 83.66 151 84.32 151 85 C151.66 85 152.32 85 153 85 C153.37125 85.66 153.7425 86.32 154.125 87 C156.7788651 91.24618417 160.19708228 94.74612348 164 98 C164.66 98 165.32 98 166 98 C167.33203125 99.57421875 167.33203125 99.57421875 168.8125 101.6875 C171.25423149 105.16353062 173.95622266 108.03528182 177 111 C178.05358714 112.05057737 179.10559451 113.10274076 180.15625 114.15625 C180.70410156 114.70410156 181.25195312 115.25195312 181.81640625 115.81640625 C186.84375 120.84375 186.84375 120.84375 188.453125 122.4609375 C189.89834613 123.89885954 191.37015085 125.30992444 192.84375 126.71875 C195 129 195 129 196 132 C196.99 132.33 197.98 132.66 199 133 C199.66 133.99 200.32 134.98 201 136 C201.99 136.33 202.98 136.66 204 137 C204.28875 137.598125 204.5775 138.19625 204.875 138.8125 C206.37989555 141.73868579 208.37455285 143.03091464 211 145 C213.10698768 146.59635302 215.03419863 148.21706388 217 150 C217 150.99 217 151.98 217 153 C217.5775 153.226875 218.155 153.45375 218.75 153.6875 C221.56427613 155.32916107 223.02737733 157.43559053 225 160 C225.66 160.33 226.32 160.66 227 161 C227 161.66 227 162.32 227 163 C227.99 163.33 228.98 163.66 230 164 C230.474375 164.639375 230.94875 165.27875 231.4375 165.9375 C232.81894195 168.09796505 232.81894195 168.09796505 234.90234375 168.875 C237.43946867 170.23569269 238.49360184 171.70935762 240.125 174.0625 C242.11074647 177.04627522 242.11074647 177.04627522 245 179 C245 179.66 245 180.32 245 181 C246.32 181.66 247.64 182.32 249 183 C249 183.66 249 184.32 249 185 C249.99 185.33 250.98 185.66 252 186 C254.1875 187.9375 254.1875 187.9375 256 190 C256 190.66 256 191.32 256 192 C256.99 192.33 257.98 192.66 259 193 C259 193.66 259 194.32 259 195 C260.1446875 195.3403125 260.1446875 195.3403125 261.3125 195.6875 C264.59716118 197.29163685 265.29918141 198.83029262 267 202 C268.90839485 204.14694421 270.56216047 205.37477365 273 207 C273.33 207.66 273.66 208.32 274 209 C276.02463255 209.65213292 276.02463255 209.65213292 278 210 C278 210.99 278 211.98 278 213 C280.4390706 215.20142332 280.4390706 215.20142332 283 217 C283.66 216.67 284.32 216.34 285 216 C285.66 215.67 286.32 215.34 287 215 C287.43147971 213.04304865 287.43147971 213.04304865 287.5625 210.75 C287.85838629 207.43713027 288.26600642 204.25054299 289 201 C289.66 201 290.32 201 291 201 C290.36684209 206.12524666 289.31839344 210.96530771 287.9375 215.9375 C287.75123047 216.62134766 287.56496094 217.30519531 287.37304688 218.00976562 C286.91910943 219.67420293 286.46009084 221.33725312 286 223 C280.56247297 218.4631954 275.51288651 213.65561998 270.51367188 208.64306641 C269.28542442 207.41744743 269.28542442 207.41744743 268.03236389 206.16706848 C265.34198167 203.48106643 262.65524936 200.79144771 259.96875 198.1015625 C258.08994895 196.22343565 256.21100064 194.34545704 254.33190918 192.46762085 C250.39964958 188.53717541 246.46949107 184.60463831 242.54052734 180.67089844 C238.01571503 176.14064875 233.48731697 171.61400734 228.95703268 167.08923018 C225.05007855 163.18683323 221.14510053 159.2824669 217.24172831 155.37648714 C214.91811627 153.05132612 212.59365904 150.72702304 210.26780701 148.40410233 C207.67154577 145.81039547 205.0785369 143.21347882 202.48632812 140.61572266 C201.7276796 139.85909836 200.96903107 139.10247406 200.18739319 138.32292175 C196.16554946 134.28521019 192.32769424 130.15217047 188.60606575 125.83666611 C186.29776154 123.19693351 183.8695651 120.71135896 181.40698242 118.21411133 C180.89533035 117.69428177 180.38367828 117.17445221 179.85652161 116.63887024 C178.1924346 114.95033203 176.52454522 113.26563702 174.85546875 111.58203125 C173.99018271 110.7087597 173.99018271 110.7087597 173.10741615 109.8178463 C170.05811602 106.74200063 167.0052729 103.6697171 163.94995117 100.59985352 C161.43993957 98.07647822 158.9374105 95.54602337 156.44116211 93.0090332 C153.40332845 89.9216561 150.35319132 86.84694873 147.29403114 83.78070641 C146.13965972 82.61966824 144.98950861 81.45441649 143.84392357 80.28470802 C134.80370024 71.06493514 126.42405898 63.99053816 112.98118591 63.81211853 C112.18205276 63.80636307 111.38291962 63.8006076 110.55957031 63.79467773 C109.71042557 63.78477814 108.86128082 63.77487854 107.98640442 63.76467896 C105.18367284 63.73312753 102.38092432 63.70833165 99.578125 63.68359375 C97.63327599 63.66301874 95.6884314 63.64202212 93.74359131 63.62062073 C88.62757955 63.56545662 83.51152781 63.51602237 78.39544678 63.46777344 C73.17375129 63.41751709 67.95211378 63.3618526 62.73046875 63.30664062 C52.48702871 63.19912829 42.2435383 63.09766793 32 63 C31.36320447 61.57467015 30.72721194 60.14898152 30.09155273 58.72314453 C29.73729721 57.92925323 29.38304169 57.13536194 29.01805115 56.31741333 C28.16137479 54.36734116 27.34363863 52.40022856 26.53515625 50.4296875 C19.81094886 34.19884207 10.75794431 19.00363679 1.29296875 4.23046875 C0 2 0 2 0 0 Z " fill="#0664BB" transform="translate(287,543)"/>
<path d="M0 0 C6.96607113 -0.07758193 13.93202678 -0.12922297 20.8984375 -0.16479492 C23.25655273 -0.17966102 25.61464148 -0.19995979 27.97265625 -0.22631836 C48.80583875 -0.45295921 69.15976412 0.97164098 89.5 5.6875 C90.61109131 5.94096191 91.72218262 6.19442383 92.86694336 6.45556641 C110.17848865 10.54981994 126.89088089 16.3509864 142.94140625 24.01757812 C144.96354113 24.98260075 146.99649391 25.92132468 149.03125 26.859375 C167.79366716 35.68834172 184.49331564 48.3393495 200 62 C199.01 62.99 199.01 62.99 198 64 C197.55269531 63.52949219 197.10539063 63.05898437 196.64453125 62.57421875 C193.27492872 59.10403107 190.20123464 56.43229374 186 54 C184.33333333 52.33333333 182.66666667 50.66666667 181 49 C180.34 49 179.68 49 179 49 C178.29875 48.2575 177.5975 47.515 176.875 46.75 C173.53280129 43.55311428 170.18496044 41.85882858 166 40 C166 39.34 166 38.68 166 38 C164.35 37.67 162.7 37.34 161 37 C161 36.34 161 35.68 161 35 C159.72769531 34.62101562 159.72769531 34.62101562 158.4296875 34.234375 C154.76149698 32.91416064 151.5022172 31.16318406 148.125 29.25 C141.94791413 25.82939768 135.69387156 23.18850826 129.01611328 20.90332031 C124.0960508 19.19210159 124.0960508 19.19210159 123 17 C122.27425781 17.03996094 121.54851562 17.07992187 120.80078125 17.12109375 C117.77569149 16.99030186 115.92848083 16.30679017 113.1875 15.0625 C109.92458274 13.67454266 107.09395296 12.72032658 103.5625 12.375 C100 12 100 12 97 10 C93.99739972 9.22346544 91.04329744 8.58293016 88 8 C86.76636719 7.76152344 85.53273438 7.52304688 84.26171875 7.27734375 C76.84933459 5.88647571 69.43224425 4.72169689 61.9375 3.875 C61.27951416 3.79958984 60.62152832 3.72417969 59.94360352 3.64648438 C45.78309802 2.14253402 31.74023023 1.88250202 17.52197266 2.09594727 C15.36359879 2.12607625 13.20539112 2.14385741 11.046875 2.16015625 C9.78713867 2.17699463 8.52740234 2.19383301 7.22949219 2.21118164 C4.10028253 2.00655763 2.67356402 1.46721139 0 0 Z " fill="#1ABCEE" transform="translate(478,187)"/>
<path d="M0 0 C38.61 0 77.22 0 117 0 C117 0.33 117 0.66 117 1 C61.065 1.495 61.065 1.495 4 2 C5.98 5.96 7.96 9.92 10 14 C10 14.66 10 15.32 10 16 C10.66 16 11.32 16 12 16 C12.45375 17.11375 12.9075 18.2275 13.375 19.375 C14.72465986 22.96199008 14.72465986 22.96199008 17 25 C18.01765927 26.99107248 19.01577854 28.99218823 20 31 C20.556875 31.9075 21.11375 32.815 21.6875 33.75 C23 36 23 36 23 38 C23.66 38.33 24.32 38.66 25 39 C25.68124706 40.99508067 26.34427209 42.99638693 27 45 C27.92234452 46.91990167 28.89817031 48.80143597 29.90234375 50.6796875 C30.91098795 52.81183929 31.74811021 54.93529938 32.56860352 57.14501953 C32.83713638 57.86658234 33.10566925 58.58814514 33.38233948 59.33157349 C33.58616745 59.88215424 33.78999542 60.43273499 34 61 C34.90818481 60.99666908 34.90818481 60.99666908 35.8347168 60.99327087 C92.67862127 60.79455076 92.67862127 60.79455076 120 62 C120 62.33 120 62.66 120 63 C90.96 63 61.92 63 32 63 C28 54 28 54 26.53515625 50.4296875 C19.81094886 34.19884207 10.75794431 19.00363679 1.29296875 4.23046875 C0 2 0 2 0 0 Z " fill="#055EB9" transform="translate(287,543)"/>
<path d="M0 0 C2 1 2 1 2.8515625 3.43359375 C3.10679687 4.42488281 3.36203125 5.41617187 3.625 6.4375 C4.01558594 7.92056641 4.01558594 7.92056641 4.4140625 9.43359375 C5 12 5 12 5 14 C5.66 14.33 6.32 14.66 7 15 C8.55016379 19.65049136 9.52400646 24.36753405 10.4375 29.1796875 C10.623125 29.78039062 10.80875 30.38109375 11 31 C11.66 31.33 12.32 31.66 13 32 C13.6328125 33.84765625 13.6328125 33.84765625 14.125 36.0625 C14.29257812 36.79597656 14.46015625 37.52945313 14.6328125 38.28515625 C14.75398438 38.85105469 14.87515625 39.41695313 15 40 C15.66 40 16.32 40 17 40 C17 41.65 17 43.3 17 45 C91.25 45 165.5 45 242 45 C242 45.33 242 45.66 242 46 C167.42 46 92.84 46 16 46 C0 8.18181818 0 8.18181818 0 0 Z " fill="#0061BE" transform="translate(253,465)"/>
<path d="M0 0 C2.09219634 1.42374263 2.09219634 1.42374263 5.0234375 2.26953125 C6.71431972 4.24910067 8.38174222 6.24898321 10.0234375 8.26953125 C10.6834375 8.59953125 11.3434375 8.92953125 12.0234375 9.26953125 C20.60244909 23.10664672 24.1204559 37.26632561 20.4609375 53.26953125 C17.02719986 66.85278424 6.89357071 78.00571839 -4.9765625 85.26953125 C-7.9765625 86.14453125 -7.9765625 86.14453125 -9.9765625 86.26953125 C-10.3065625 85.60953125 -10.6365625 84.94953125 -10.9765625 84.26953125 C-10.37070312 84.01300781 -9.76484375 83.75648438 -9.140625 83.4921875 C2.32555143 78.25302689 11.29570589 70.00640222 16.2734375 58.33984375 C20.78034733 45.53896791 20.39867485 32.73247094 15.0234375 20.26953125 C8.29322548 7.14987743 -1.4480954 -0.15983879 -15.33984375 -4.87109375 C-26.93572488 -7.611259 -38.480957 -6.40082185 -48.9765625 -0.73046875 C-54.86667811 2.98644899 -60.29295242 7.10140979 -64.9765625 12.26953125 C-64.19896622 8.51114925 -62.97520125 6.11213269 -59.9765625 3.58203125 C-57.9765625 2.26953125 -57.9765625 2.26953125 -55.9765625 2.26953125 C-55.9765625 1.60953125 -55.9765625 0.94953125 -55.9765625 0.26953125 C-51.99933323 -1.77874182 -47.99670041 -3.76784242 -43.9765625 -5.73046875 C-43.29980469 -6.08238281 -42.62304688 -6.43429688 -41.92578125 -6.796875 C-28.30395934 -13.04901942 -11.77550687 -7.72645385 0 0 Z " fill="#16B3E9" transform="translate(571.9765625,259.73046875)"/>
<path d="M0 0 C52.8 0 105.6 0 160 0 C160 0.33 160 0.66 160 1 C107.86 1 55.72 1 2 1 C2.36483403 11.33523069 2.36483403 11.33523069 5 21 C4.72057545 22.67654729 4.39171753 24.34608154 4 26 C4.66 26 5.32 26 6 26 C6.9765625 32.0546875 6.9765625 32.0546875 7 34 C6.34 34.66 5.68 35.32 5 36 C4.34998322 33.00085281 3.70488963 30.00078199 3.0625 27 C2.88009766 26.16082031 2.69769531 25.32164062 2.50976562 24.45703125 C0.73011989 16.10887489 0 8.64020248 0 0 Z " fill="#0077C7" transform="translate(247,428)"/>
<path d="M0 0 C2 0 2 0 3.625 1.375 C5 3 5 3 5 5 C5.99 5.33 6.98 5.66 8 6 C8.474375 6.639375 8.94875 7.27875 9.4375 7.9375 C10.81894195 10.09796505 10.81894195 10.09796505 12.90234375 10.875 C15.43946867 12.23569269 16.49360184 13.70935762 18.125 16.0625 C20.11074647 19.04627522 20.11074647 19.04627522 23 21 C23 21.66 23 22.32 23 23 C24.32 23.66 25.64 24.32 27 25 C27 25.66 27 26.32 27 27 C27.99 27.33 28.98 27.66 30 28 C32.1875 29.9375 32.1875 29.9375 34 32 C34 32.66 34 33.32 34 34 C34.99 34.33 35.98 34.66 37 35 C37 35.66 37 36.32 37 37 C37.763125 37.226875 38.52625 37.45375 39.3125 37.6875 C42.59716118 39.29163685 43.29918141 40.83029262 45 44 C46.90839485 46.14694421 48.56216047 47.37477365 51 49 C51.33 49.66 51.66 50.32 52 51 C54.02463255 51.65213292 54.02463255 51.65213292 56 52 C56 52.99 56 53.98 56 55 C58.4390706 57.20142332 58.4390706 57.20142332 61 59 C61.66 58.67 62.32 58.34 63 58 C63.66 57.67 64.32 57.34 65 57 C65.43147971 55.04304865 65.43147971 55.04304865 65.5625 52.75 C65.85838629 49.43713027 66.26600642 46.25054299 67 43 C67.66 43 68.32 43 69 43 C68.36684209 48.12524666 67.31839344 52.96530771 65.9375 57.9375 C65.75123047 58.62134766 65.56496094 59.30519531 65.37304688 60.00976562 C64.91910943 61.67420293 64.46009084 63.33725312 64 65 C59.47403216 61.2069192 55.14607114 57.29505897 50.97290039 53.11816406 C50.13743683 52.28773842 50.13743683 52.28773842 49.28509521 51.4405365 C47.46999993 49.63483653 45.65860018 47.8254877 43.84765625 46.015625 C42.57977933 44.7509649 41.31182872 43.48637868 40.04380798 42.22186279 C37.40039668 39.58441135 34.759032 36.94492958 32.11889648 34.30419922 C28.7287383 30.91393873 25.33171247 27.53064899 21.93294621 24.14902115 C19.31912546 21.54628198 16.70982485 18.93904811 14.10180473 16.33049774 C12.85023562 15.08011133 11.59703862 13.83135221 10.34221077 12.58423615 C8.59716253 10.84892481 6.85849227 9.10746628 5.12133789 7.36425781 C4.59934311 6.84788254 4.07734833 6.33150726 3.53953552 5.79948425 C0 2.22832608 0 2.22832608 0 0 Z " fill="#055BB5" transform="translate(509,701)"/>
<path d="M0 0 C22.15914109 21.80740869 35.75542627 49.8172074 44.9375 79.1875 C45.25662354 80.19240479 45.57574707 81.19730957 45.90454102 82.23266602 C46.19256592 83.18069092 46.48059082 84.12871582 46.77734375 85.10546875 C47.03765381 85.95262451 47.29796387 86.79978027 47.56616211 87.67260742 C48.0293193 90.15728805 47.80649215 91.6297124 47 94 C46.67 94 46.34 94 46 94 C44.072989 88.6043692 42.58629472 83.27521284 41.3125 77.6875 C39.14308802 68.41849972 35.50503226 59.77498448 31.78442383 51.03613281 C31 49 31 49 30.51831055 46.79980469 C30.34726807 46.20586914 30.17622559 45.61193359 30 45 C29.34 44.67 28.68 44.34 28 44 C26.6263447 41.46402099 25.43661361 38.86395116 24.21875 36.25 C23.20395461 33.86303466 23.20395461 33.86303466 21 33 C20.31668069 31.34009129 19.65332215 29.6719427 19 28 C17.89577393 26.10019901 16.7476665 24.22538899 15.5625 22.375 C14.96566406 21.43398438 14.36882813 20.49296875 13.75390625 19.5234375 C12.13245329 17.02865183 12.13245329 17.02865183 10.27734375 15.2890625 C9 14 9 14 9 12 C8.34 12 7.68 12 7 12 C6.731875 11.38125 6.46375 10.7625 6.1875 10.125 C5.04443152 7.7004767 5.04443152 7.7004767 2 6 C0 3 0 3 0 0 Z " fill="#1BBAED" transform="translate(686,258)"/>
<path d="M0 0 C0.66 0.33 1.32 0.66 2 1 C-10.9916575 11.56232317 -27.76235533 12.17808643 -43.8125 12.1875 C-44.93076172 12.19974609 -46.04902344 12.21199219 -47.20117188 12.22460938 C-48.27560547 12.22654297 -49.35003906 12.22847656 -50.45703125 12.23046875 C-51.9107312 12.23663208 -51.9107312 12.23663208 -53.39379883 12.24291992 C-56.07284863 11.99320989 -57.7070024 11.36672543 -60 10 C-59.03698975 9.97494385 -58.07397949 9.9498877 -57.08178711 9.92407227 C-53.48287383 9.82935729 -49.884125 9.72929748 -46.28540039 9.62768555 C-44.73270536 9.58457755 -43.17997026 9.54288732 -41.62719727 9.50268555 C-39.38545697 9.4443931 -37.14391396 9.38087422 -34.90234375 9.31640625 C-34.21663803 9.29969376 -33.53093231 9.28298126 -32.82444763 9.26576233 C-28.48537532 9.13466643 -24.28642258 8.67312121 -20 8 C-18.54204768 7.85040554 -17.08378289 7.70376554 -15.625 7.5625 C-13.830625 7.2840625 -13.830625 7.2840625 -12 7 C-11.67 6.34 -11.34 5.68 -11 5 C-9.00458132 4.31974363 -7.00382009 3.65509503 -5 3 C-3.63875 2.1646875 -3.63875 2.1646875 -2.25 1.3125 C-1.13625 0.6628125 -1.13625 0.6628125 0 0 Z " fill="#1476C5" transform="translate(720,707)"/>
<path d="M0 0 C0.33 0 0.66 0 1 0 C1.48423511 2.3115374 1.96244112 4.62407371 2.4375 6.9375 C2.70433594 8.22527344 2.97117187 9.51304687 3.24609375 10.83984375 C4.85308466 19.30540361 5.19271035 27.64316048 5.1875 36.25 C5.18814453 37.35013428 5.18878906 38.45026855 5.18945312 39.58374023 C5.13970158 47.23247506 4.66716667 54.51263542 3 62 C1.515 62.495 1.515 62.495 0 63 C0.14308594 62.29875 0.28617188 61.5975 0.43359375 60.875 C2.34621157 51.16681577 3.29178466 41.90446817 3 32 C2.67 32 2.34 32 2 32 C2.01160156 31.21496094 2.02320313 30.42992187 2.03515625 29.62109375 C2.09907402 22.17923872 1.49540705 15.29010935 0 8 C-1.12676056 2.25352113 -1.12676056 2.25352113 0 0 Z " fill="#1BB3E8" transform="translate(734,352)"/>
<path d="M0 0 C2 1 2 1 2.8515625 3.43359375 C3.10679687 4.42488281 3.36203125 5.41617187 3.625 6.4375 C4.01558594 7.92056641 4.01558594 7.92056641 4.4140625 9.43359375 C5 12 5 12 5 14 C5.66 14.33 6.32 14.66 7 15 C8.55016379 19.65049136 9.52400646 24.36753405 10.4375 29.1796875 C10.623125 29.78039062 10.80875 30.38109375 11 31 C11.66 31.33 12.32 31.66 13 32 C13.6328125 33.84765625 13.6328125 33.84765625 14.125 36.0625 C14.29257812 36.79597656 14.46015625 37.52945313 14.6328125 38.28515625 C14.75398438 38.85105469 14.87515625 39.41695313 15 40 C15.66 40 16.32 40 17 40 C16.67 41.32 16.34 42.64 16 44 C13.52532259 41.52532259 12.78356932 39.29196442 11.50390625 36.03125 C11.02759766 34.81953125 10.55128906 33.6078125 10.06054688 32.359375 C9.69110962 31.40708008 9.69110962 31.40708008 9.31420898 30.43554688 C8.57507507 28.53237908 7.82635101 26.6332118 7.07617188 24.734375 C0 6.62854251 0 6.62854251 0 0 Z " fill="#0C72C2" transform="translate(253,465)"/>
<path d="M0 0 C1.57587891 0.11794922 1.57587891 0.11794922 3.18359375 0.23828125 C10.054162 0.79030466 16.74457297 1.75814969 23.5 3.125 C23.5 3.455 23.5 3.785 23.5 4.125 C16.41710279 4.34672548 9.52645524 4.11329977 2.5 3.1875 C-7.4687466 1.87502952 -17.45883675 1.49798554 -27.5 1.125 C-19.83197336 -3.36279016 -8.4977873 -0.6985911 0 0 Z " fill="#0967BE" transform="translate(633.5,712.875)"/>
<path d="M0 0 C2.625 0.375 2.625 0.375 5 1 C2.82406526 3.17593474 1.11304445 3.89842157 -1.6875 5.125 C-12.22011754 10.3761757 -16.28236456 19.79040599 -21 30 C-22.09760908 26.45387835 -21.81188643 24.47737467 -20.21484375 21.0625 C-16.53694847 14.81835625 -11.51190451 8.72448958 -6 4 C-5.01 4 -4.02 4 -3 4 C-2.67 3.34 -2.34 2.68 -2 2 C-1.34 1.34 -0.68 0.68 0 0 Z " fill="#0D66BD" transform="translate(600,713)"/>
<path d="M0 0 C3 1 3 1 5 4 C5.99 4.33 6.98 4.66 8 5 C8.28875 5.598125 8.5775 6.19625 8.875 6.8125 C10.37989555 9.73868579 12.37455285 11.03091464 15 13 C17.10698768 14.59635302 19.03419863 16.21706388 21 18 C21 18.99 21 19.98 21 21 C21.61875 21.268125 22.2375 21.53625 22.875 21.8125 C25 23 25 23 27 26 C23.34341209 26 22.51271634 24.87132978 20.00093079 22.39212036 C19.23670052 21.61407547 19.23670052 21.61407547 18.45703125 20.8203125 C17.92857101 20.29235077 17.40011078 19.76438904 16.8556366 19.22042847 C15.74007544 18.10252627 14.62820757 16.98092819 13.51977539 15.85595703 C11.8174732 14.13004219 10.10222577 12.41784888 8.38476562 10.70703125 C7.30389239 9.62058212 6.22378751 8.53336792 5.14453125 7.4453125 C4.62897171 6.93066437 4.11341217 6.41601624 3.58222961 5.88577271 C0 2.23101808 0 2.23101808 0 0 Z " fill="#1F75C3" transform="translate(483,675)"/>
<path d="M0 0 C2 0 2 0 3.625 1.375 C5 3 5 3 5 5 C5.99 5.33 6.98 5.66 8 6 C8.474375 6.639375 8.94875 7.27875 9.4375 7.9375 C10.81894195 10.09796505 10.81894195 10.09796505 12.90234375 10.875 C15.43946867 12.23569269 16.49360184 13.70935762 18.125 16.0625 C20.11074647 19.04627522 20.11074647 19.04627522 23 21 C23 21.66 23 22.32 23 23 C24.32 23.66 25.64 24.32 27 25 C26.67 25.99 26.34 26.98 26 28 C22.2908542 24.34017795 18.58823822 20.67392152 14.89160156 17.00146484 C13.63232287 15.75226298 12.37125764 14.50485944 11.10839844 13.25927734 C9.29673588 11.47178925 7.49153161 9.67799773 5.6875 7.8828125 C5.11878174 7.32441681 4.55006348 6.76602112 3.96411133 6.19070435 C2.6042535 4.83124115 1.29658827 3.41993393 0 2 C0 1.34 0 0.68 0 0 Z " fill="#1068BC" transform="translate(509,701)"/>
<path d="M0 0 C0.66 0 1.32 0 2 0 C2.13277344 1.27617187 2.26554688 2.55234375 2.40234375 3.8671875 C2.58052665 5.53647996 2.75892314 7.20574964 2.9375 8.875 C3.02451172 9.71675781 3.11152344 10.55851562 3.20117188 11.42578125 C3.28818359 12.23144531 3.37519531 13.03710938 3.46484375 13.8671875 C3.543396 14.61081543 3.62194824 15.35444336 3.70288086 16.12060547 C3.91637347 18.08446316 3.91637347 18.08446316 5 20 C4.72057545 21.67654729 4.39171753 23.34608154 4 25 C4.66 25 5.32 25 6 25 C6.9765625 31.0546875 6.9765625 31.0546875 7 33 C6.34 33.66 5.68 34.32 5 35 C2.26027797 23.27653828 0.33252028 12.05386004 0 0 Z " fill="#127BC7" transform="translate(247,429)"/>
<path d="M0 0 C0.66 0.66 1.32 1.32 2 2 C1.43152344 2.31453125 0.86304688 2.6290625 0.27734375 2.953125 C-5.99056743 6.42715924 -12.24912818 9.90377769 -18.375 13.625 C-19.37660156 14.23214844 -19.37660156 14.23214844 -20.3984375 14.8515625 C-22.15596867 15.92338916 -22.15596867 15.92338916 -23 18 C-23.66 18 -24.32 18 -25 18 C-25 17.01 -25 16.02 -25 15 C-23.2434082 13.60546875 -23.2434082 13.60546875 -20.80078125 12.1875 C-19.48110352 11.41019531 -19.48110352 11.41019531 -18.13476562 10.6171875 C-17.20341797 10.08351562 -16.27207031 9.54984375 -15.3125 9 C-14.40048828 8.46632812 -13.48847656 7.93265625 -12.54882812 7.3828125 C-10.83668058 6.38167314 -9.1218571 5.38508645 -7.40356445 4.39453125 C-4.92066873 2.95397255 -2.45817256 1.48228215 0 0 Z " fill="#17ADE5" transform="translate(366,219)"/>
<path d="M0 0 C-3.1340842 2.08938947 -5.0315465 2.2827161 -8.6875 2.65234375 C-12.10637873 3.16633059 -15.30063683 4.25860595 -18.58984375 5.30078125 C-21.72508814 6.21035782 -24.75887579 6.64770389 -28 7 C-28.33 6.34 -28.66 5.68 -29 5 C-25.29697128 3.95922382 -21.58694103 2.94598518 -17.875 1.9375 C-16.82828125 1.64294922 -15.7815625 1.34839844 -14.703125 1.04492188 C-13.68476563 0.77099609 -12.66640625 0.49707031 -11.6171875 0.21484375 C-10.21895752 -0.17006226 -10.21895752 -0.17006226 -8.79248047 -0.56274414 C-5.61532241 -1.06023409 -3.12598202 -0.67964899 0 0 Z " fill="#22B9EC" transform="translate(444,194)"/>
<path d="M0 0 C7.61628638 1.15398278 12.20408129 3.77002859 17.359375 9.296875 C19.10405376 11.19497309 19.10405376 11.19497309 21.875 13.1875 C24.24164092 15.20610549 24.42775547 16.05963713 25 19 C24.01 18.154375 23.02 17.30875 22 16.4375 C21.35546875 15.89222656 20.7109375 15.34695313 20.046875 14.78515625 C18.71212098 13.62106734 17.4075099 12.4212019 16.140625 11.18359375 C10.9813664 6.24818728 5.81256813 4.01621961 -1 2 C-0.67 1.34 -0.34 0.68 0 0 Z " fill="#0D6CBF" transform="translate(407,605)"/>
<path d="M0 0 C0.66 0.33 1.32 0.66 2 1 C-6.04048296 7.00123003 -13.82229391 10.66376344 -24 10 C-21.2756595 8.29728719 -18.95476399 7.81027741 -15.8125 7.5 C-14.554375 7.335 -13.29625 7.17 -12 7 C-11.67 6.34 -11.34 5.68 -11 5 C-9.00458132 4.31974363 -7.00382009 3.65509503 -5 3 C-4.0925 2.443125 -3.185 1.88625 -2.25 1.3125 C-1.13625 0.6628125 -1.13625 0.6628125 0 0 Z " fill="#0669BE" transform="translate(720,707)"/>
<path d="M0 0 C0.66 0.33 1.32 0.66 2 1 C1.60167969 1.53367187 1.20335937 2.06734375 0.79296875 2.6171875 C-2.74761049 7.59639626 -4.88999033 11.97077427 -6.26171875 17.93359375 C-7 20 -7 20 -10 22 C-10.33 21.34 -10.66 20.68 -11 20 C-10.34 20 -9.68 20 -9 20 C-8.86722656 19.22914063 -8.73445313 18.45828125 -8.59765625 17.6640625 C-8.33275391 16.15972656 -8.33275391 16.15972656 -8.0625 14.625 C-7.88847656 13.62726563 -7.71445312 12.62953125 -7.53515625 11.6015625 C-7 9 -7 9 -6 7 C-5.34 7 -4.68 7 -4 7 C-3.71125 6.21625 -3.4225 5.4325 -3.125 4.625 C-2 2 -2 2 0 0 Z " fill="#18B1E7" transform="translate(505,272)"/>
<path d="M0 0 C2.40764943 3.73994556 2.23509252 7.0719678 2.1875 11.4375 C2.18105469 12.73558594 2.17460938 14.03367187 2.16796875 15.37109375 C2.02836295 18.38722841 1.70454736 21.07471935 1 24 C0.67 24 0.34 24 0 24 C-0.94120241 15.83325905 -0.94120241 8.16674095 0 0 Z " fill="#1681C9" transform="translate(733,663)"/>
<path d="M0 0 C3 1 3 1 5 4 C5.99 4.33 6.98 4.66 8 5 C9 7 9 7 10 9 C11.62746694 10.70496537 13.28891311 12.37897032 15 14 C12 14 12 14 9.08203125 11.4453125 C7.98435681 10.34630754 6.89478953 9.23915907 5.8125 8.125 C5.25369141 7.56941406 4.69488281 7.01382813 4.11914062 6.44140625 C0 2.26694139 0 2.26694139 0 0 Z " fill="#297AC5" transform="translate(483,675)"/>
<path d="M0 0 C2.55803184 3.83704776 4.34505724 7.75712791 3.625 12.4375 C3.41875 12.953125 3.2125 13.46875 3 14 C1.02 12.68 -0.96 11.36 -3 10 C-2.34 9.01 -1.68 8.02 -1 7 C-0.34 7 0.32 7 1 7 C0.67 4.69 0.34 2.38 0 0 Z " fill="#0951AE" transform="translate(574,843)"/>
<path d="M0 0 C0.66 0 1.32 0 2 0 C1.21085905 6.78661213 -0.41274811 13.36149367 -2 20 C-3.32 19.34 -4.64 18.68 -6 18 C-5.34 16.68 -4.68 15.36 -4 14 C-3.34 14 -2.68 14 -2 14 C-1.93941406 13.40832031 -1.87882813 12.81664062 -1.81640625 12.20703125 C-1.37987629 8.09021792 -0.91328654 4.04455467 0 0 Z " fill="#085EB7" transform="translate(576,744)"/>
<path d="M0 0 C0.99 0.66 1.98 1.32 3 2 C0.09399739 3.25664978 -1.79604584 4 -5 4 C-5.33 4.66 -5.66 5.32 -6 6 C-9.81995829 7.61287128 -12.05432816 8.20681069 -16 7 C-13.40268937 5.77457151 -10.79895247 4.56957671 -8.1875 3.375 C-7.08051758 2.8490625 -7.08051758 2.8490625 -5.95117188 2.3125 C-5.23896484 1.99023438 -4.52675781 1.66796875 -3.79296875 1.3359375 C-2.81106567 0.88033447 -2.81106567 0.88033447 -1.80932617 0.41552734 C-1.21224854 0.27840332 -0.6151709 0.1412793 0 0 Z " fill="#1BB3E8" transform="translate(390,208)"/>
<path d="M0 0 C0.66 0.66 1.32 1.32 2 2 C-1.3 4.64 -4.6 7.28 -8 10 C-8.66 9.34 -9.32 8.68 -10 8 C-6.7 5.36 -3.4 2.72 0 0 Z " fill="#1AABE4" transform="translate(334,239)"/>
<path d="M0 0 C-0.33 0.99 -0.66 1.98 -1 3 C-3.765625 4.16796875 -3.765625 4.16796875 -7.25 5.1875 C-8.38953125 5.53167969 -9.5290625 5.87585938 -10.703125 6.23046875 C-13.62909513 6.91342623 -16.0176081 7.16257399 -19 7 C-15.78036326 4.85357551 -12.55570141 3.64118646 -8.9375 2.375 C-8.30005859 2.14554688 -7.66261719 1.91609375 -7.00585938 1.6796875 C-2.261742 0 -2.261742 0 0 0 Z " fill="#1AB4EA" transform="translate(411,201)"/>
<path d="M0 0 C0.33 0 0.66 0 1 0 C1.05423638 1.91635217 1.09289963 3.83314925 1.125 5.75 C1.14820313 6.81734375 1.17140625 7.8846875 1.1953125 8.984375 C1.00487687 11.92470106 0.52670104 13.52361878 -1 16 C-1.66 14.68 -2.32 13.36 -3 12 C-2.34 11.34 -1.68 10.68 -1 10 C-0.53837573 7.56747339 -0.53837573 7.56747339 -0.375 4.875 C-0.30023437 3.96492188 -0.22546875 3.05484375 -0.1484375 2.1171875 C-0.09945312 1.41851562 -0.05046875 0.71984375 0 0 Z " fill="#12ADE6" transform="translate(566,295)"/>
<path d="M0 0 C-3.63465602 2.32617985 -6.76036719 2.31404687 -11 2 C-11.66 1.34 -12.32 0.68 -13 0 C-8.34462607 -0.83796731 -4.62921525 -1.0161692 0 0 Z " fill="#2ABEEE" transform="translate(467,190)"/>
<path d="M0 0 C0.66 0.33 1.32 0.66 2 1 C-2.455 3.97 -2.455 3.97 -7 7 C-7.66 6.34 -8.32 5.68 -9 5 C-7.54735962 4.1361871 -6.0876837 3.28419546 -4.625 2.4375 C-3.40683594 1.72400391 -3.40683594 1.72400391 -2.1640625 0.99609375 C-1.44992187 0.66738281 -0.73578125 0.33867188 0 0 Z " fill="#0F74C3" transform="translate(720,707)"/>
<path d="M0 0 C0.33 1.98 0.66 3.96 1 6 C0.67 5.34 0.34 4.68 0 4 C-0.66 4 -1.32 4 -2 4 C-2 3.34 -2 2.68 -2 2 C-3.32 1.67 -4.64 1.34 -6 1 C-3 0 -3 0 0 0 Z " fill="#1290D3" transform="translate(410,428)"/>
</svg>
